<?xml version="1.0" standalone="no"?>
<!DOCTYPE svg PUBLIC "-//W3C//DTD SVG 20010904//EN"
 "http://www.w3.org/TR/2001/REC-SVG-20010904/DTD/svg10.dtd">
<svg version="1.0" xmlns="http://www.w3.org/2000/svg"
 width="1200.000000pt" height="1200.000000pt" viewBox="0 0 1200.000000 1200.000000"
 preserveAspectRatio="xMidYMid meet">

<g transform="translate(0.000000,1200.000000) scale(0.100000,-0.100000)"
fill="#000000" stroke="none">
<path d="M5671 9410 l-185 -5 -28 -89 -29 -89 26 -86 c43 -143 44 -150 49
-331 4 -190 13 -249 78 -513 l41 -168 -18 -94 c-25 -124 -16 -157 66 -235 59
-56 60 -58 70 -130 6 -41 46 -204 90 -364 156 -568 189 -723 194 -926 3 -104
11 -167 35 -278 38 -176 103 -401 169 -592 53 -152 111 -365 111 -406 0 -13 9
-38 20 -56 11 -18 20 -43 20 -55 0 -12 5 -25 10 -28 6 -3 10 -17 10 -31 0 -14
7 -41 16 -62 9 -20 16 -49 15 -64 -1 -15 9 -69 23 -121 19 -68 26 -119 26
-183 l0 -88 55 -56 c46 -46 56 -64 65 -108 6 -35 6 -68 0 -95 -28 -122 5 -286
111 -558 54 -137 43 -126 149 -161 38 -13 51 -13 82 -2 26 9 40 10 44 2 8 -12
-14 -28 -38 -28 -52 0 -124 -25 -150 -50 -15 -16 -28 -34 -28 -40 0 -21 52
-59 109 -81 147 -55 272 -72 333 -44 34 15 351 56 603 78 183 16 179 4 100
244 -31 98 -62 210 -66 248 -14 112 -16 121 -29 161 -7 20 -13 65 -14 98 -1
47 -11 83 -44 157 -33 76 -40 104 -35 133 4 23 2 36 -6 36 -6 0 -11 17 -11 40
0 23 -6 51 -14 63 -45 68 -111 352 -126 540 -6 85 -18 142 -49 239 -27 86 -42
154 -47 215 -3 48 -13 104 -21 123 -8 19 -14 55 -15 79 0 24 -6 61 -13 82 -23
64 -42 172 -70 389 -15 113 -35 241 -45 285 -72 312 -96 407 -137 540 -73 238
-82 281 -98 445 -34 351 -79 581 -136 698 -25 52 -33 85 -44 190 -7 70 -23
186 -35 257 -74 447 -103 561 -171 665 -38 60 -109 117 -128 105 -6 -3 -16 -3
-22 1 -7 4 -30 9 -52 11 -22 2 -81 17 -131 34 -92 31 -166 39 -402 43 -39 0
-77 6 -85 11 -9 6 -83 8 -198 5z m1504 -5993 c-12 -6 -26 -5 -44 4 l-26 12 30
7 c37 8 65 -8 40 -23z m494 14 c5 13 10 20 10 14 1 -5 20 -19 43 -30 42 -20
42 -20 14 -23 -42 -5 -93 6 -111 24 -25 26 -17 39 10 14 l25 -23 9 24z m-345
-11 c12 -12 -45 -14 -83 -3 -23 6 -24 7 -5 14 22 10 74 3 88 -11z m216 10 c0
-5 -12 -10 -27 -9 -25 0 -26 1 -8 9 27 12 35 12 35 0z m-130 -9 c0 -10 -25
-21 -48 -21 -15 1 -14 3 2 15 22 17 46 20 46 6z m473 -6 c1 -5 -14 -11 -33
-13 -33 -3 -34 -3 -15 12 22 17 45 17 48 1z m-76 -21 c-3 -3 -12 -4 -19 -1 -8
3 -5 6 6 6 11 1 17 -2 13 -5z"/>
<path d="M5257 8841 c-24 -27 -28 -40 -53 -139 -13 -53 -24 -126 -24 -162 0
-102 -32 -230 -104 -424 -85 -227 -103 -303 -87 -365 10 -40 8 -60 -14 -156
-15 -60 -29 -148 -32 -195 -3 -47 -11 -104 -19 -128 -8 -23 -14 -58 -14 -76 0
-21 -6 -36 -15 -40 -11 -4 -15 -20 -15 -56 0 -28 -4 -58 -9 -68 -12 -22 -108
-452 -127 -569 -8 -49 -14 -133 -14 -188 0 -55 -5 -118 -10 -140 -6 -22 -15
-71 -20 -110 -5 -38 -14 -90 -21 -115 -6 -25 -17 -87 -24 -139 -7 -51 -19
-106 -25 -122 -7 -16 -10 -36 -6 -44 7 -18 -28 -209 -50 -275 -9 -25 -17 -65
-19 -90 -1 -25 -5 -52 -8 -60 -12 -34 -20 -77 -18 -102 1 -14 -5 -50 -13 -79
-9 -29 -16 -73 -16 -97 0 -28 -8 -57 -21 -79 -15 -24 -18 -38 -11 -45 7 -7 7
-19 0 -39 -7 -21 -7 -33 1 -43 14 -16 9 -120 -7 -139 -22 -28 -43 -81 -72
-183 -37 -134 -80 -350 -80 -408 0 -30 -6 -48 -19 -60 -28 -26 -35 -65 -16
-87 16 -16 15 -22 -8 -81 -32 -79 -42 -120 -61 -233 -9 -49 -18 -100 -22 -112
-9 -33 21 -41 45 -12 l18 23 13 -24 c11 -20 10 -24 -6 -33 -31 -18 -65 -57
-59 -67 26 -43 195 -80 370 -82 396 -5 498 -1 579 20 43 12 97 32 119 44 46
26 68 68 50 96 -10 17 -24 18 -133 10 -37 -2 -45 0 -48 16 -3 15 1 18 22 14
14 -3 27 -1 29 5 1 5 10 2 19 -6 14 -14 18 -14 28 -2 6 8 8 20 4 27 -4 7 2 4
14 -6 19 -17 22 -17 22 -3 0 10 6 16 12 14 8 -1 21 29 35 83 24 93 28 140 13
140 -5 0 -10 4 -10 10 0 5 5 9 12 7 8 -1 17 20 24 54 6 31 15 62 19 68 4 7 9
31 11 54 8 74 10 83 32 118 11 19 30 55 41 82 23 54 29 59 23 18 -3 -23 1 -33
19 -44 20 -13 48 -14 179 -6 85 5 165 11 176 14 14 3 30 24 46 63 14 31 33 64
42 71 14 12 16 10 16 -13 0 -14 5 -26 10 -26 6 0 10 -14 10 -30 0 -27 2 -29
18 -21 11 6 39 36 63 67 31 40 45 52 47 41 2 -9 12 -17 23 -17 10 0 19 -4 19
-9 0 -5 11 -8 24 -8 23 -1 24 2 21 56 -1 31 -8 69 -14 84 -6 17 -11 95 -11
187 0 87 -4 170 -10 184 -14 38 -50 56 -133 65 -101 12 -148 36 -237 125 l-74
76 14 87 c8 49 16 129 17 178 4 158 13 217 35 223 28 7 49 56 55 130 4 55 2
70 -11 81 -20 17 -20 55 0 116 14 39 15 65 9 144 -5 53 -9 130 -10 171 0 41
-7 92 -14 113 -7 21 -11 48 -8 59 9 33 -12 251 -38 402 -59 336 -75 436 -84
516 -24 222 -75 532 -116 704 -13 56 -27 146 -30 201 -7 100 -68 374 -100 451
-10 25 -12 41 -5 48 5 5 10 21 10 36 0 42 -27 155 -50 207 -20 46 -24 50 -70
59 -42 9 -52 8 -63 -5z m359 -4688 c-10 -10 -19 5 -10 18 6 11 8 11 12 0 2 -7
1 -15 -2 -18z m279 2 c-2 -39 -19 -75 -35 -75 -26 0 -33 15 -26 55 6 29 10 33
34 32 15 -1 27 -7 27 -12z m-226 -47 c-17 -31 -23 -9 -8 28 9 22 13 25 16 12
2 -9 -1 -27 -8 -40z m111 33 c0 -4 -6 -8 -14 -8 -8 0 -12 6 -9 14 5 13 23 9
23 -6z m21 -14 c-10 -9 -11 -8 -5 6 3 10 9 15 12 12 3 -3 0 -11 -7 -18z m-830
-522 c-9 -38 -9 -38 -10 -9 -1 17 2 47 6 65 7 30 8 31 11 9 1 -14 -1 -43 -7
-65z"/>
<path d="M6056 4115 c-3 -9 -6 -22 -5 -28 0 -7 5 -1 10 12 5 13 8 26 5 28 -2
2 -6 -3 -10 -12z"/>
</g>
</svg>
